[Header]
FileType HTR
DataType HTRS
FileVersion 1
NumSegments 64
NumFrames 4
DataFrameRate 30
EulerRotationOrder ZYX
CalibrationUnits mm
RotationUnits Degrees
GlobalAxisofGravity Y
BoneLengthAxis Y
ScaleFactor 1.0
[SegmentNames&Hierarchy]
Hips	GLOBAL
Spine	Hips
Spine1	Spine
Spine2	Spine1
Neck	Spine2
Head	Neck
LeftEye	Head
RightEye	Head
LeftShoulder	Spine2
LeftArm	LeftShoulder
LeftForeArm	LeftArm
LeftHand	LeftForeArm
LeftHandThumb1	LeftHand
LeftHandThumb2	LeftHandThumb1
LeftHandThumb3	LeftHandThumb2
LeftHandThumb4	LeftHandThumb3
LeftHandIndex1	LeftHand
LeftHandIndex2	LeftHandIndex1
LeftHandIndex3	LeftHandIndex2
LeftHandIndex4	LeftHandIndex3
LeftHandMiddle1	LeftHand
LeftHandMiddle2	LeftHandMiddle1
LeftHandMiddle3	LeftHandMiddle2
LeftHandMiddle4	LeftHandMiddle3
LeftHandRing1	LeftHand
LeftHandRing2	LeftHandRing1
LeftHandRing3	LeftHandRing2
LeftHandRing4	LeftHandRing3
LeftHandPinky1	LeftHand
LeftHandPinky2	LeftHandPinky1
LeftHandPinky3	LeftHandPinky2
LeftHandPinky4	LeftHandPinky3
RightShoulder	Spine2
RightArm	RightShoulder
RightForeArm	RightArm
RightHand	RightForeArm
RightHandPinky1	RightHand
RightHandPinky2	RightHandPinky1
RightHandPinky3	RightHandPinky2
RightHandPinky4	RightHandPinky3
RightHandRing1	RightHand
RightHandRing2	RightHandRing1
RightHandRing3	RightHandRing2
RightHandRing4	RightHandRing3
RightHandMiddle1	RightHand
RightHandMiddle2	RightHandMiddle1
RightHandMiddle3	RightHandMiddle2
RightHandMiddle4	RightHandMiddle3
RightHandIndex1	RightHand
RightHandIndex2	RightHandIndex1
RightHandIndex3	RightHandIndex2
RightHandIndex4	RightHandIndex3
RightHandThumb1	RightHand
RightHandThumb2	RightHandThumb1
RightHandThumb3	RightHandThumb2
RightHandThumb4	RightHandThumb3
LeftUpLeg	Hips
LeftLeg	LeftUpLeg
LeftFoot	LeftLeg
LeftToeBase	LeftFoot
RightUpLeg	Hips
RightLeg	RightUpLeg
RightFoot	RightLeg
RightToeBase	RightFoot
[BasePosition]
Hips	0	0	0	0	0	0	1
Spine	0	0	0	0	0	0	1
Spine1	0	0	0	0	0	0	1
Spine2	0	0	0	0	0	0	1
Neck	0	0	0	0	0	0	1
Head	0	0	0	0	0	0	1
LeftEye	0	0	0	0	0	0	1
RightEye	0	0	0	0	0	0	1
LeftShoulder	0	0	0	0	0	0	1
LeftArm	0	0	0	0	0	0	1
LeftForeArm	0	0	0	0	0	0	1
LeftHand	0	0	0	0	0	0	1
LeftHandThumb1	0	0	0	0	0	0	1
LeftHandThumb2	0	0	0	0	0	0	1
LeftHandThumb3	0	0	0	0	0	0	1
LeftHandThumb4	0	0	0	0	0	0	1
LeftHandIndex1	0	0	0	0	0	0	1
LeftHandIndex2	0	0	0	0	0	0	1
LeftHandIndex3	0	0	0	0	0	0	1
LeftHandIndex4	0	0	0	0	0	0	1
LeftHandMiddle1	0	0	0	0	0	0	1
LeftHandMiddle2	0	0	0	0	0	0	1
LeftHandMiddle3	0	0	0	0	0	0	1
LeftHandMiddle4	0	0	0	0	0	0	1
LeftHandRing1	0	0	0	0	0	0	1
LeftHandRing2	0	0	0	0	0	0	1
LeftHandRing3	0	0	0	0	0	0	1
LeftHandRing4	0	0	0	0	0	0	1
LeftHandPinky1	0	0	0	0	0	0	1
LeftHandPinky2	0	0	0	0	0	0	1
LeftHandPinky3	0	0	0	0	0	0	1
LeftHandPinky4	0	0	0	0	0	0	1
RightShoulder	0	0	0	0	0	0	1
RightArm	0	0	0	0	0	0	1
RightForeArm	0	0	0	0	0	0	1
RightHand	0	0	0	0	0	0	1
RightHandPinky1	0	0	0	0	0	0	1
RightHandPinky2	0	0	0	0	0	0	1
RightHandPinky3	0	0	0	0	0	0	1
RightHandPinky4	0	0	0	0	0	0	1
RightHandRing1	0	0	0	0	0	0	1
RightHandRing2	0	0	0	0	0	0	1
RightHandRing3	0	0	0	0	0	0	1
RightHandRing4	0	0	0	0	0	0	1
RightHandMiddle1	0	0	0	0	0	0	1
RightHandMiddle2	0	0	0	0	0	0	1
RightHandMiddle3	0	0	0	0	0	0	1
RightHandMiddle4	0	0	0	0	0	0	1
RightHandIndex1	0	0	0	0	0	0	1
RightHandIndex2	0	0	0	0	0	0	1
RightHandIndex3	0	0	0	0	0	0	1
RightHandIndex4	0	0	0	0	0	0	1
RightHandThumb1	0	0	0	0	0	0	1
RightHandThumb2	0	0	0	0	0	0	1
RightHandThumb3	0	0	0	0	0	0	1
RightHandThumb4	0	0	0	0	0	0	1
LeftUpLeg	0	0	0	0	0	0	1
LeftLeg	0	0	0	0	0	0	1
LeftFoot	0	0	0	0	0	0	1
LeftToeBase	0	0	0	0	0	0	1
RightUpLeg	0	0	0	0	0	0	1
RightLeg	0	0	0	0	0	0	1
RightFoot	0	0	0	0	0	0	1
RightToeBase	0	0	0	0	0	0	1
[Hips]
256	150.3504333	1003.297424	128.4462128	10.81968117	14.31386948	-5.512157917	1.0
257	194.9411621	993.9616699	118.4482574	10.23496151	11.86371899	-5.87866497	1.0
258	230.912384	993.8601685	106.6565552	7.41629076	10.01498222	-5.659649372	1.0
259	258.9367065	1000.680664	95.81031799	4.402051449	9.089713097	-4.79109478	1.0
[Spine]
256	0	101.8159943	1.315000057	-0.8337631822	-5.092132568	5.883695126	1.0
257	0	101.8159943	1.315000057	-0.007363331504	-4.669469357	8.355138779	1.0
258	0	101.8159943	1.315000057	3.227638483	-4.308131695	9.031892776	1.0
259	0	101.8159943	1.315000057	6.656299591	-3.957490683	7.858458519	1.0
[Spine1]
256	0	100.8349991	-10.00800037	1.157176256	-1.076323986	-0.6124554873	1.0
257	0	100.8349991	-10.00800037	1.178698063	-0.9688360095	-0.07104501128	1.0
258	0	100.8349991	-10.00800037	1.996372938	-0.790080905	0.5632070899	1.0
259	0	100.8349991	-10.00800037	2.970878124	-0.6181218624	1.064094067	1.0
[Spine2]
256	0	91	-13.73399925	1.099348068	-1.123643637	-0.6206514239	1.0
257	0	91	-13.73399925	1.126122355	-1.010169506	-0.07692600787	1.0
258	0	91	-13.73399925	1.957169294	-0.8344210386	0.5579738021	1.0
259	0	91	-13.73399925	2.945889711	-0.652077198	1.057534218	1.0
[Neck]
256	0	166.7169952	-25.16200066	1.829046607	-41.6727066	-14.42702389	1.0
257	0	166.7169952	-25.16200066	1.516470671	-42.45232773	-17.58811378	1.0
258	0	166.7169952	-25.16200066	-1.682737947	-42.20568848	-17.73732948	1.0
259	0	166.7169952	-25.16200066	-5.723369122	-40.83265686	-16.50763893	1.0
[Head]
256	0	96.17900085	16.84999847	-5.100299358	-16.77922058	14.3905592	1.0
257	0	96.17900085	16.84999847	-6.27901125	-14.59724617	15.36898422	1.0
258	0	96.17900085	16.84999847	-6.707399845	-14.36468697	15.26834393	1.0
259	0	96.17900085	16.84999847	-5.85126543	-15.40928268	14.47063065	1.0
[LeftEye]
256	30.6760006	64.09500122	92.83599854	0	0	0	1.0
257	30.6760006	64.09500122	92.83599854	0	0	0	1.0
258	30.6760006	64.09500122	92.83599854	0	0	0	1.0
259	30.6760006	64.09500122	92.83599854	0	0	0	1.0
[RightEye]
256	-30.6760006	64.09500122	92.83499908	0	0	0	1.0
257	-30.6760006	64.09500122	92.83499908	0	0	0	1.0
258	-30.6760006	64.09500122	92.83499908	0	0	0	1.0
259	-30.6760006	64.09500122	92.83499908	0	0	0	1.0
[LeftShoulder]
256	45.70400238	109.4599991	-26.28000069	3.343937159	-16.60242462	-0.5774083734	1.0
257	45.70400238	109.4599991	-26.28000069	3.411809206	-16.47713661	-0.9345629215	1.0
258	45.70400238	109.4599991	-26.28000069	3.484297514	-15.90326118	-1.38935709	1.0
259	45.70400238	109.4599991	-26.28000069	3.587840796	-14.56912994	-2.117340565	1.0
[LeftArm]
256	105.923996	-5.24600029	-22.32099915	44.48733902	41.16777802	-47.76205826	1.0
257	105.923996	-5.24600029	-22.32099915	42.39234924	38.4704361	-50.7729454	1.0
258	105.923996	-5.24600029	-22.32099915	41.26349258	34.59751129	-52.52603912	1.0
259	105.923996	-5.24600029	-22.32099915	41.62145996	31.45250511	-51.76524734	1.0
[LeftForeArm]
256	278.414978	-0.0009999999311	0	0.0004425048828	-92.59194183	-0.0006866455078	1.0
257	278.414978	-0.0009999999311	0	3.178407133e-05	-87.66348267	-0.000228718578	1.0
258	278.414978	-0.0009999999311	0	-3.420489884e-05	-83.68935394	-0.0001551316964	1.0
259	278.414978	-0.0009999999311	0	4.462623838e-05	-82.93925476	-0.000251576741	1.0
[LeftHand]
256	283.2879944	0	0	31.78274727	-32.50774765	-25.31838799	1.0
257	283.2879944	0	0	34.1747818	-37.06557083	-28.30329132	1.0
258	283.2879944	0	0	38.10740662	-41.20634079	-29.31527901	1.0
259	283.2879944	0	0	40.87722778	-42.46303177	-28.45185089	1.0
[LeftHandThumb1]
256	24.6609993	-15.75	26.8239994	-1.441470742	-8.319262505	8.65396595	1.0
257	24.6609993	-15.75	26.8239994	-1.441467881	-8.319263458	8.653962135	1.0
258	24.6609993	-15.75	26.8239994	-1.441470861	-8.319266319	8.653959274	1.0
259	24.6609993	-15.75	26.8239994	-1.441468358	-8.319265366	8.653961182	1.0
[LeftHandThumb2]
256	32.29800034	-18.64699936	18.64699936	-0.9986540079	48.0361557	-30.10185051	1.0
257	32.29800034	-18.64699936	18.64699936	-0.9985970855	48.03617477	-30.1018219	1.0
258	32.29800034	-18.64699936	18.64699936	-0.99858886	48.03617096	-30.10180473	1.0
259	32.29800034	-18.64699936	18.64699936	-0.9986039996	48.03617096	-30.10180855	1.0
[LeftHandThumb3]
256	26.52600098	-15.31499958	15.31499958	7.52218008	50.02408218	24.3875885	1.0
257	26.52600098	-15.31499958	15.31499958	7.52216959	50.02408981	24.38758278	1.0
258	26.52600098	-15.31499958	15.31499958	7.5221591	50.02408218	24.38756371	1.0
259	26.52600098	-15.31499958	15.31499958	7.522160053	50.02407837	24.38755989	1.0
[LeftHandThumb4]
256	19.54599953	-11.28499985	11.28499985	0	0	0	1.0
257	19.54599953	-11.28499985	11.28499985	0	0	0	1.0
258	19.54599953	-11.28499985	11.28499985	0	0	0	1.0
259	19.54599953	-11.28499985	11.28499985	0	0	0	1.0
[LeftHandIndex1]
256	91.09299469	-5.170999527	22.60099792	-1.706927896	9.272168159	-79.12528992	1.0
257	91.09299469	-5.170999527	22.60099792	-1.706924915	9.27217865	-79.12529755	1.0
258	91.09299469	-5.170999527	22.60099792	-1.706920862	9.272183418	-79.12528229	1.0
259	91.09299469	-5.170999527	22.60099792	-1.706922293	9.272185326	-79.12527466	1.0
[LeftHandIndex2]
256	36.76399994	0	0	-5.084217548	5.778048038	-82.67964935	1.0
257	36.76399994	0	0	-5.08422184	5.778054237	-82.67964935	1.0
258	36.76399994	0	0	-5.084227562	5.778049946	-82.67965698	1.0
259	36.76399994	0	0	-5.084229469	5.778051376	-82.67964172	1.0
[LeftHandIndex3]
256	28.83100128	0	0	-6.449676991	5.791754246	-96.16446686	1.0
257	28.83100128	0	0	-6.449681759	5.791758537	-96.16448975	1.0
258	28.83100128	0	0	-6.449682713	5.791753769	-96.16448975	1.0
259	28.83100128	0	0	-6.449681282	5.791751385	-96.16448975	1.0
[LeftHandIndex4]
256	23.92700005	0	0	0	0	0	1.0
257	23.92700005	0	0	0	0	0	1.0
258	23.92700005	0	0	0	0	0	1.0
259	23.92700005	0	0	0	0	0	1.0
[LeftHandMiddle1]
256	95.33399963	0	0	-6.494748592	5.273254871	-74.30393982	1.0
257	95.33399963	0	0	-6.494747162	5.273253918	-74.30393219	1.0
258	95.33399963	0	0	-6.494761467	5.273248196	-74.30393219	1.0
259	95.33399963	0	0	-6.494768143	5.273251534	-74.30393219	1.0
[LeftHandMiddle2]
256	36.98199844	0	0	-7.583501339	5.554394245	-107.5965958	1.0
257	36.98199844	0	0	-7.583486557	5.554385662	-107.596611	1.0
258	36.98199844	0	0	-7.583498955	5.554384708	-107.5966034	1.0
259	36.98199844	0	0	-7.58350563	5.554385185	-107.5965958	1.0
[LeftHandMiddle3]
256	29.50900078	0	0	-4.044082642	5.547112465	-72.16720581	1.0
257	29.50900078	0	0	-4.044089317	5.547124386	-72.16722107	1.0
258	29.50900078	0	0	-4.044091225	5.547138214	-72.16722107	1.0
259	29.50900078	0	0	-4.044091225	5.54713726	-72.16720581	1.0
[LeftHandMiddle4]
256	28.3390007	0	0	0	0	0	1.0
257	28.3390007	0	0	0	0	0	1.0
258	28.3390007	0	0	0	0	0	1.0
259	28.3390007	0	0	0	0	0	1.0
[LeftHandRing1]
256	91.04499817	-0.4390000105	-18.65100098	-7.093583584	2.507938147	-79.76667023	1.0
257	91.04499817	-0.4390000105	-18.65100098	-7.093583107	2.507956505	-79.76668549	1.0
258	91.04499817	-0.4390000105	-18.65100098	-7.093595505	2.507949352	-79.76667023	1.0
259	91.04499817	-0.4390000105	-18.65100098	-7.093606472	2.507946491	-79.76667023	1.0
[LeftHandRing2]
256	31.54000092	0	0	-6.249156475	5.809817314	-94.18068695	1.0
257	31.54000092	0	0	-6.249151707	5.809822559	-94.18067932	1.0
258	31.54000092	0	0	-6.249157429	5.809822083	-94.18067932	1.0
259	31.54000092	0	0	-6.249153614	5.809818268	-94.18067932	1.0
[LeftHandRing3]
256	29.37700081	0	0	-2.898622036	5.038859367	-59.798069	1.0
257	29.37700081	0	0	-2.898617268	5.038863659	-59.79807663	1.0
258	29.37700081	0	0	-2.898620605	5.038864613	-59.79808044	1.0
259	29.37700081	0	0	-2.898625851	5.038863182	-59.79807281	1.0
[LeftHandRing4]
256	26.47500038	0	0	0	0	0	1.0
257	26.47500038	0	0	0	0	0	1.0
258	26.47500038	0	0	0	0	0	1.0
259	26.47500038	0	0	0	0	0	1.0
[LeftHandPinky1]
256	80.77799988	-4.887000084	-38.06099701	-15.74280167	5.236316204	-84.96305084	1.0
257	80.77799988	-4.887000084	-38.06099701	-15.74281216	5.236327648	-84.9630661	1.0
258	80.77799988	-4.887000084	-38.06099701	-15.74280453	5.236321449	-84.96305847	1.0
259	80.77799988	-4.887000084	-38.06099701	-15.74280357	5.236326694	-84.96305847	1.0
[LeftHandPinky2]
256	36	0	0	-2.465518236	4.761465549	-54.73119354	1.0
257	36	0	0	-2.465527296	4.761470318	-54.7312088	1.0
258	36	0	0	-2.465524435	4.761463165	-54.73120117	1.0
259	36	0	0	-2.465524673	4.761461258	-54.73119354	1.0
[LeftHandPinky3]
256	21.14200211	0	0	-4.92965889	5.756184101	-81.1413269	1.0
257	21.14200211	0	0	-4.929650784	5.756189346	-81.14135742	1.0
258	21.14200211	0	0	-4.929643631	5.756196499	-81.14134979	1.0
259	21.14200211	0	0	-4.929647446	5.756196976	-81.14134979	1.0
[LeftHandPinky4]
256	19.75699997	0	0	0	0	0	1.0
257	19.75699997	0	0	0	0	0	1.0
258	19.75699997	0	0	0	0	0	1.0
259	19.75699997	0	0	0	0	0	1.0
[RightShoulder]
256	-45.70000076	109.4620056	-26.28000069	2.943133354	0.5126298666	4.607291698	1.0
257	-45.70000076	109.4620056	-26.28000069	2.937439442	0.1858282983	4.95753479	1.0
258	-45.70000076	109.4620056	-26.28000069	2.926025152	-0.6423395872	5.599158764	1.0
259	-45.70000076	109.4620056	-26.28000069	2.937674046	-1.142728567	6.320401192	1.0
[RightArm]
256	-105.9280014	-5.248000145	-22.32099915	56.34305954	-16.25272179	35.76587677	1.0
257	-105.9280014	-5.248000145	-22.32099915	57.17493057	-17.56272125	32.12080383	1.0
258	-105.9280014	-5.248000145	-22.32099915	54.02020645	-19.88139915	31.39892197	1.0
259	-105.9280014	-5.248000145	-22.32099915	48.08673477	-22.67178917	33.76853561	1.0
[RightForeArm]
256	-278.414978	0	0	0.001525878906	90.93243408	0.001403808594	1.0
257	-278.414978	0	0	0.0001068091442	95.73984528	9.988199599e-05	1.0
258	-278.414978	0	0	-0.0001953109168	98.03633881	-0.0001818833407	1.0
259	-278.414978	0	0	-3.051689782e-05	97.44887543	-4.028267722e-05	1.0
[RightHand]
256	-283.2879944	0	0.0009999999311	25.15152931	29.16724968	35.18801117	1.0
257	-283.2879944	0	0.0009999999311	23.95713043	25.02825546	32.3930397	1.0
258	-283.2879944	0	0.0009999999311	28.4339695	22.49077415	33.19379044	1.0
259	-283.2879944	0	0.0009999999311	35.45899582	21.97930336	37.42868805	1.0
[RightHandPinky1]
256	-80.76699829	-4.885000229	-38.06000137	-14.51714993	-4.048332691	84.21437073	1.0
257	-80.76699829	-4.885000229	-38.06000137	-14.51715851	-4.048324585	84.21435547	1.0
258	-80.76699829	-4.885000229	-38.06000137	-14.51716995	-4.048326015	84.21434784	1.0
259	-80.76699829	-4.885000229	-38.06000137	-14.51718044	-4.048319817	84.21437836	1.0
[RightHandPinky2]
256	-36	0	0.0009999999311	-1.960818887	-3.784825087	54.78263855	1.0
257	-36	0	0.0009999999311	-1.960826755	-3.784828424	54.78262329	1.0
258	-36	0	0.0009999999311	-1.960840702	-3.784836769	54.78263092	1.0
259	-36	0	0.0009999999311	-1.960836649	-3.784830332	54.78263092	1.0
[RightHandPinky3]
256	-21.14200211	0	0	-3.919520378	-4.575714111	81.15795135	1.0
257	-21.14200211	0	0	-3.919515133	-4.575721264	81.15795135	1.0
258	-21.14200211	0	0	-3.919517994	-4.575718403	81.15795898	1.0
259	-21.14200211	0	0	-3.919517517	-4.575715542	81.15795898	1.0
[RightHandPinky4]
256	-19.75699997	0	0	0	0	0	1.0
257	-19.75699997	0	0	0	0	0	1.0
258	-19.75699997	0	0	0	0	0	1.0
259	-19.75699997	0	0	0	0	0	1.0
[RightHandRing1]
256	-91.03599548	-0.4390000105	-18.65100098	-5.975879669	-1.320495367	79.02268219	1.0
257	-91.03599548	-0.4390000105	-18.65100098	-5.975872517	-1.320490718	79.0226593	1.0
258	-91.03599548	-0.4390000105	-18.65100098	-5.975869179	-1.320506096	79.02267456	1.0
259	-91.03599548	-0.4390000105	-18.65100098	-5.975866795	-1.320504785	79.02268219	1.0
[RightHandRing2]
256	-31.54000092	0	0	-4.967088699	-4.618299007	94.17272949	1.0
257	-31.54000092	0	0	-4.96710062	-4.618302822	94.17276001	1.0
258	-31.54000092	0	0	-4.967084885	-4.618293285	94.17275238	1.0
259	-31.54000092	0	0	-4.967070103	-4.618280888	94.17275238	1.0
[RightHandRing3]
256	-29.37700081	0	0	-2.306360483	-4.00609684	59.84557724	1.0
257	-29.37700081	0	0	-2.306351423	-4.006104469	59.84557343	1.0
258	-29.37700081	0	0	-2.306347609	-4.006101131	59.8455658	1.0
259	-29.37700081	0	0	-2.306357384	-4.006097794	59.8455658	1.0
[RightHandRing4]
256	-26.47500038	0	0	0	0	0	1.0
257	-26.47500038	0	0	0	0	0	1.0
258	-26.47500038	0	0	0	0	0	1.0
259	-26.47500038	0	0	0	0	0	1.0
[RightHandMiddle1]
256	-95.32500458	0	0	-5.490189075	-4.098496437	73.57292938	1.0
257	-95.32500458	0	0	-5.490203857	-4.098500252	73.57290649	1.0
258	-95.32500458	0	0	-5.490198135	-4.098501205	73.57289124	1.0
259	-95.32500458	0	0	-5.490199566	-4.098491192	73.57290649	1.0
[RightHandMiddle2]
256	-36.98199844	0	0	-6.026582718	-4.415492058	107.5651093	1.0
257	-36.98199844	0	0	-6.026584625	-4.415501118	107.5651169	1.0
258	-36.98199844	0	0	-6.026577473	-4.415492535	107.5651016	1.0
259	-36.98199844	0	0	-6.026576996	-4.415492058	107.5651093	1.0
[RightHandMiddle3]
256	-29.50900078	0	0	-3.216310978	-4.411746502	72.19917297	1.0
257	-29.50900078	0	0	-3.216319084	-4.411757469	72.19916534	1.0
258	-29.50900078	0	0	-3.2163167	-4.411749363	72.19915771	1.0
259	-29.50900078	0	0	-3.216312408	-4.411756039	72.19916534	1.0
[RightHandMiddle4]
256	-28.3390007	0	0.0009999999311	0	0	0	1.0
257	-28.3390007	0	0.0009999999311	0	0	0	1.0
258	-28.3390007	0	0.0009999999311	0	0	0	1.0
259	-28.3390007	0	0.0009999999311	0	0	0	1.0
[RightHandIndex1]
256	-91.08300018	-5.167999744	22.60099792	-0.6033803821	-8.085658073	78.39247131	1.0
257	-91.08300018	-5.167999744	22.60099792	-0.6033794284	-8.085658073	78.39246368	1.0
258	-91.08300018	-5.167999744	22.60099792	-0.6033614874	-8.085671425	78.39244843	1.0
259	-91.08300018	-5.167999744	22.60099792	-0.6033778787	-8.085662842	78.39247131	1.0
[RightHandIndex2]
256	-36.76399994	0	0	-4.04223156	-4.593076706	82.6934433	1.0
257	-36.76399994	0	0	-4.042248249	-4.593073368	82.69343567	1.0
258	-36.76399994	0	0	-4.042238235	-4.593066692	82.69343567	1.0
259	-36.76399994	0	0	-4.042237759	-4.593074322	82.69343567	1.0
[RightHandIndex3]
256	-28.83100128	0	0	-5.12629509	-4.6039505	96.15283203	1.0
257	-28.83100128	0	0	-5.12629509	-4.603970051	96.1528244	1.0
258	-28.83100128	0	0	-5.12628746	-4.603971004	96.1528244	1.0
259	-28.83100128	0	0	-5.126285076	-4.603962421	96.1528244	1.0
[RightHandIndex4]
256	-23.92700005	0	0	0	0	0	1.0
257	-23.92700005	0	0	0	0	0	1.0
258	-23.92700005	0	0	0	0	0	1.0
259	-23.92700005	0	0	0	0	0	1.0
[RightHandThumb1]
256	-24.64799881	-15.72700024	26.82600021	-2.388237715	10.16858578	-8.287027359	1.0
257	-24.64799881	-15.72700024	26.82600021	-2.388236284	10.16858292	-8.287034035	1.0
258	-24.64799881	-15.72700024	26.82600021	-2.388225555	10.16859245	-8.287044525	1.0
259	-24.64799881	-15.72700024	26.82600021	-2.388232231	10.16858768	-8.287023544	1.0
[RightHandThumb2]
256	-32.29800034	-18.64699936	18.64699936	-2.059289932	-49.39985657	30.22304344	1.0
257	-32.29800034	-18.64699936	18.64699936	-2.05928874	-49.39984512	30.22303391	1.0
258	-32.29800034	-18.64699936	18.64699936	-2.059294701	-49.39985275	30.22304916	1.0
259	-32.29800034	-18.64699936	18.64699936	-2.059308529	-49.39985657	30.22306442	1.0
[RightHandThumb3]
256	-26.52600098	-15.31399918	15.31399918	13.49725819	-55.14929581	-27.7250042	1.0
257	-26.52600098	-15.31399918	15.31399918	13.49726582	-55.14929581	-27.72501945	1.0
258	-26.52600098	-15.31399918	15.31399918	13.49725723	-55.14929199	-27.72501373	1.0
259	-26.52600098	-15.31399918	15.31399918	13.4972477	-55.14929199	-27.72500229	1.0
[RightHandThumb4]
256	-19.54599953	-11.28499985	11.28499985	0	0	0	1.0
257	-19.54599953	-11.28499985	11.28499985	0	0	0	1.0
258	-19.54599953	-11.28499985	11.28499985	0	0	0	1.0
259	-19.54599953	-11.28499985	11.28499985	0	0	0	1.0
[LeftUpLeg]
256	82.07800293	-67.51699829	-15.99599934	-31.90795708	22.97115898	4.201361656	1.0
257	82.07800293	-67.51699829	-15.99599934	-30.9300518	24.77585602	0.7775139809	1.0
258	82.07800293	-67.51699829	-15.99599934	-27.51028824	28.02006912	-1.349347949	1.0
259	82.07800293	-67.51699829	-15.99599934	-24.45181084	32.46569824	-2.912993431	1.0
[LeftLeg]
256	0	-443.7049866	2.845999956	35.49259567	4.670248032	4.803394794	1.0
257	0	-443.7049866	2.845999956	36.02775574	3.374328375	4.286196232	1.0
258	0	-443.7049866	2.845999956	35.37300873	2.272423267	3.537452936	1.0
259	0	-443.7049866	2.845999956	35.35653687	1.402102113	2.706819534	1.0
[LeftFoot]
256	0	-444.2789917	-29.8219986	-7.992194653	4.528740883	-7.802814007	1.0
257	0	-444.2789917	-29.8219986	-16.63108635	8.320922852	-6.03800106	1.0
258	0	-444.2789917	-29.8219986	-19.20350456	9.327271461	-3.511548042	1.0
259	0	-444.2789917	-29.8219986	-16.12548256	5.496715546	-0.3702892065	1.0
[LeftToeBase]
256	0	-87.28699493	107.1060028	-7.496997356	-7.32309104e-07	1.131371505e-06	1.0
257	0	-87.28699493	107.1060028	-1.440333605	-7.451900785e-08	-2.665972943e-06	1.0
258	0	-87.28699493	107.1060028	-0.8071383834	6.612634934e-06	-7.512958291e-07	1.0
259	0	-87.28699493	107.1060028	-7.803134441	-0.07472543418	-0.1657893062	1.0
[RightUpLeg]
256	-82.07800293	-67.51699829	-15.99599934	-17.31705475	-11.07208157	-32.59065628	1.0
257	-82.07800293	-67.51699829	-15.99599934	-20.01755524	-3.670991421	-34.82889938	1.0
258	-82.07800293	-67.51699829	-15.99599934	-22.66183472	2.226299047	-32.47065353	1.0
259	-82.07800293	-67.51699829	-15.99599934	-24.20980072	3.847562313	-26.14571571	1.0
[RightLeg]
256	0	-443.7049866	2.861999989	22.81435394	4.233318329	3.971963644	1.0
257	0	-443.7049866	2.861999989	30.02859879	-1.186315656	1.070409894	1.0
258	0	-443.7049866	2.861999989	41.42176437	-2.903117895	-0.4373412132	1.0
259	0	-443.7049866	2.861999989	51.77541733	-2.813668728	-0.7562291026	1.0
[RightFoot]
256	0	-444.2770081	-29.83799934	30.00685692	-3.525666237	30.56395531	1.0
257	0	-444.2770081	-29.83799934	19.36979294	-7.134710312	22.96280479	1.0
258	0	-444.2770081	-29.83799934	9.701045036	-7.517186165	14.17912483	1.0
259	0	-444.2770081	-29.83799934	3.388834953	-4.704721451	10.61599064	1.0
[RightToeBase]
256	0	-87.28699493	107.1060028	-3.110215664	9.444933653e-07	2.532717417e-06	1.0
257	0	-87.28699493	107.1060028	-3.109301805	1.705270165e-06	8.797515875e-06	1.0
258	0	-87.28699493	107.1060028	-0.9756610394	-3.11341023e-06	-6.041252163e-06	1.0
259	0	-87.28699493	107.1060028	-1.176787734	-2.292183808e-06	-8.611337762e-06	1.0
[EndOfFile]
